<svg xmlns="http://www.w3.org/2000/svg" width="5721" height="3754" viewBox="0 0 5721 3754">
  <metadata><?xpacket begin="﻿" id="W5M0MpCehiHzreSzNTczkc9d"?>
<x:xmpmeta xmlns:x="adobe:ns:meta/" x:xmptk="Adobe XMP Core 5.6-c142 79.160924, 2017/07/13-01:06:39        ">
   <rdf:RDF xmlns:rdf="http://www.w3.org/1999/02/22-rdf-syntax-ns#">
      <rdf:Description rdf:about=""/>
   </rdf:RDF>
</x:xmpmeta>
                                                                                                    
                                                                                                    
                                                                                                    
                                                                                                    
                                                                                                    
                                                                                                    
                                                                                                    
                                                                                                    
                                                                                                    
                                                                                                    
                                                                                                    
                                                                                                    
                                                                                                    
                                                                                                    
                                                                                                    
                                                                                                    
                                                                                                    
                                                                                                    
                                                                                                    
                                                                                                    
                           
<?xpacket end="w"?></metadata>
<defs>
    <style>
      .cls-1 {
        fill-rule: evenodd;
      }
    </style>
  </defs>
  <path id="Black" class="cls-1" d="M0,0H5721V2370q-251.475,8.505-503,17v-1l2-2q16.5-22.005,33-44,12-35.49,24-71c9.71-41.72-7.36-96.88-15-124q-7.5-29.49-15-59-14.505-15-29-30c-23.27-28.87-48.45-49.21-79-71q-11.505-9-23-18-18-1.995-36-4c-35.62-6.35-75.26-10.33-114-4q-19.005,1.005-38,2-47.49,18-95,36-2.505-25.5-5-51,2.505-22.995,5-46-17.505-27-35-54,12.495-7.5,25-15-12,4.995-24,10-88.485-12-177-24l-188-12q-38.49-.495-77-1-194.985-1.005-390-2-100.995-1.005-202-2c-83.14,0-166.19-4.88-242,7q-41.49,2.505-83,5-93.495,5.505-187,11H3153q-32.49,9-65,18-1.995,74.985-4,150c-3.25,21.66-3.43,49.71,0,72q1.005,36.495,2,73,1.005,53.49,2,107l36,144-47,12q-66.99-12-134-24H2830c-19.05-3.89-55.93-21.19-76-18-72.31,11.48-146.06,23.36-216,36q-27,1.005-54,2-31.5,1.995-63,4c-100.26-14.27-195.69-23.96-314-24-24.74-.01-71.33-16.08-88-12q-34.995,15-70,30c-41.95,10.22-86.88-11.83-117-18q-33.99.495-68,1-41.49,2.505-83,5l-79,18-127-18q-28.995-12-58-24-43.5,3.495-87,7-54.99,4.995-110,10-49.5,12.495-99,25c-4.91-8.9-15.96-25.34-25-30l-109-12-81,24c-37.919,4.1-75.8-18.41-117-12l-102,6-58,18-63-18H501q-86.491-2.505-173-5c-50.293-7.8-96.29-17.41-144-25q-91.99,18-184,36V0ZM4774,2381c0.37-35.12,5.35-91.2,22-113l37-31h-5q7.995-18,16-36,15.495-36,31-72,15.495-15,31-30,8.505-9,17-18,25.5-4.005,51-8c16.84-3.38,82.08-5.34,100,2l66,54q14.505,40.995,29,82-3.495,19.005-7,38-4.995,29.49-10,59c-4.93,13.37-52.64,68.24-66,73H4774Z"/>
</svg>
